<svg width="486.667" height="486.667" viewBox="0 0 365.717 365" xmlns="http://www.w3.org/2000/svg" xmlns:xlink="http://www.w3.org/1999/xlink" overflow="hidden"><g fill="#F44336"><path d="M356.34 296.348 69.7266 9.73438C57.2266-2.76563 36.9609-2.76563 24.4805 9.73438L9.375 24.8164C-3.125 37.3203-3.125 57.5859 9.375 70.0664L295.988 356.68C308.492 369.18 328.758 369.18 341.238 356.68L356.32 341.598C368.844 329.117 368.844 308.848 356.34 296.348Z" fill="#70AD47"/><path d="M295.988 9.73438 9.375 296.348C-3.125 308.848-3.125 329.117 9.375 341.598L24.457 356.68C36.9609 369.18 57.2266 369.18 69.707 356.68L356.34 70.0859C368.844 57.5859 368.844 37.3203 356.34 24.8398L341.258 9.75781C328.758-2.76563 308.492-2.76563 295.988 9.73438Z" fill="#70AD47"/></g></svg>